G04 DipTrace 3.3.1.3*
G04 Top.gbr*
%MOMM*%
G04 #@! TF.FileFunction,Copper,L1,Top*
G04 #@! TF.Part,Single*
%AMOUTLINE0*
4,1,4,
0.85,-0.85,
-0.85,-0.85,
-0.85,0.85,
0.85,0.85,
0.85,-0.85,
0*%
G04 #@! TA.AperFunction,Conductor*
%ADD13C,0.33*%
G04 #@! TA.AperFunction,ComponentPad*
%ADD14C,1.65*%
%ADD15R,0.9X1.75*%
G04 #@! TA.AperFunction,ComponentPad*
%ADD16C,1.5*%
%ADD17R,1.7X1.7*%
%ADD18C,1.7*%
%ADD33OUTLINE0*%
%FSLAX35Y35*%
G04*
G71*
G90*
G75*
G01*
G04 Top*
%LPD*%
X2016000Y3540000D2*
D13*
X1762000D1*
X1508000D1*
Y4556000D2*
Y3540000D1*
Y3286000D2*
X3032000D1*
X2270000D1*
X2016000Y3540000D1*
X1958000Y4556000D2*
Y4002000D1*
X2166000Y3794000D1*
X3286000D1*
X3540000D1*
X3794000D1*
Y3286000D2*
Y3794000D1*
X3032000Y2251000D2*
X3794000D1*
X1508000Y1254000D2*
X2778000D1*
X2408000Y5906000D2*
Y6153000D1*
X2391000Y6170000D1*
X1508000Y2251000D2*
Y1762000D1*
X2778000D1*
X3813000D2*
Y1273000D1*
X3794000Y1254000D1*
X2108000Y5906000D2*
Y6141000D1*
X2137000Y6170000D1*
D14*
X2778000Y1762000D3*
X3813000D3*
D15*
X1508000Y4556000D3*
X1658000D3*
X1808000D3*
X1958000D3*
X2108000D3*
X2258000D3*
X2408000D3*
X2558000D3*
Y5906000D3*
X2408000D3*
X2258000D3*
X2108000D3*
X1958000D3*
X1808000D3*
X1658000D3*
X1508000D3*
D16*
X2137000Y6170000D3*
X3794000Y1254000D3*
X2391000Y6170000D3*
X1508000Y1762000D3*
Y1254000D3*
D17*
Y3540000D3*
D18*
X1762000D3*
X2016000D3*
D33*
X3794000Y3794000D3*
D18*
X3540000D3*
X3286000D3*
D14*
X1508000Y3286000D3*
Y2251000D3*
X3032000Y3286000D3*
Y2251000D3*
X3794000Y3286000D3*
Y2251000D3*
D16*
X2778000Y1254000D3*
M02*
