G04 DipTrace 3.3.1.3*
G04 TopSilk.gbr*
%MOMM*%
G04 #@! TF.FileFunction,Legend,Top*
G04 #@! TF.Part,Single*
%ADD10C,0.25*%
%ADD31C,0.19608*%
%FSLAX35Y35*%
G04*
G71*
G90*
G75*
G01*
G04 TopSilk*
%LPD*%
X2955900Y1902000D2*
D10*
X3635100D1*
X2955900Y1622000D2*
X3635100D1*
X2955900D2*
Y1902000D1*
X3635100Y1622000D2*
Y1902000D1*
X1381048Y3667013D2*
X2142952D1*
Y3413000D1*
X1381048D1*
Y3667013D1*
X3920916Y3666963D2*
X3159093D1*
Y3920998D1*
X3920916D1*
Y3666963D1*
X1648000Y3108100D2*
Y2428900D1*
X1368000Y3108100D2*
Y2428900D1*
Y3108100D2*
X1648000D1*
X1368000Y2428900D2*
X1648000D1*
X3172000Y3108100D2*
Y2428900D1*
X2892000Y3108100D2*
Y2428900D1*
Y3108100D2*
X3172000D1*
X2892000Y2428900D2*
X3172000D1*
X3934000Y3108100D2*
Y2428900D1*
X3654000Y3108100D2*
Y2428900D1*
Y3108100D2*
X3934000D1*
X3654000Y2428900D2*
X3934000D1*
X3228839Y2087846D2*
D31*
X3168193D1*
X3162156Y2033237D1*
X3168193Y2039273D1*
X3186443Y2045450D1*
X3204553D1*
X3222803Y2039273D1*
X3235016Y2027200D1*
X3241053Y2008950D1*
Y1996877D1*
X3235016Y1978627D1*
X3222803Y1966414D1*
X3204553Y1960377D1*
X3186443D1*
X3168193Y1966414D1*
X3162156Y1972590D1*
X3155980Y1984664D1*
X3280268Y2063560D2*
X3292482Y2069737D1*
X3310732Y2087846D1*
Y1960377D1*
X3349947Y2087987D2*
Y1960377D1*
X3435020Y2087987D2*
X3349947Y2002914D1*
X3380270Y2033377D2*
X3435020Y1960377D1*
X1875370Y6179487D2*
Y6051877D1*
X1930120D1*
X1948370Y6058054D1*
X1954406Y6064090D1*
X1960443Y6076164D1*
Y6094414D1*
X1954406Y6106627D1*
X1948370Y6112664D1*
X1930120Y6118700D1*
X1948370Y6124877D1*
X1954406Y6130914D1*
X1960443Y6142987D1*
Y6155200D1*
X1954406Y6167273D1*
X1948370Y6173450D1*
X1930120Y6179487D1*
X1875370D1*
Y6118700D2*
X1930120D1*
X1999659Y6179487D2*
Y6051877D1*
X2072518D1*
X2190630Y6179487D2*
X2111734D1*
Y6051877D1*
X2190630D1*
X2111734Y6118700D2*
X2160307D1*
X2124857Y6430846D2*
X2106747Y6424810D1*
X2100570Y6412737D1*
Y6400523D1*
X2106747Y6388450D1*
X2118820Y6382273D1*
X2143107Y6376237D1*
X2161357Y6370200D1*
X2173430Y6357987D1*
X2179466Y6345914D1*
Y6327664D1*
X2173430Y6315590D1*
X2167393Y6309414D1*
X2149143Y6303377D1*
X2124857D1*
X2106747Y6309414D1*
X2100570Y6315590D1*
X2094534Y6327664D1*
Y6345914D1*
X2100570Y6357987D1*
X2112784Y6370200D1*
X2130893Y6376237D1*
X2155180Y6382273D1*
X2167393Y6388450D1*
X2173430Y6400523D1*
Y6412737D1*
X2167393Y6424810D1*
X2149143Y6430846D1*
X2124857D1*
X3833518Y1472450D2*
X3827341Y1454200D1*
X3815268Y1441987D1*
X3797018Y1435950D1*
X3790982D1*
X3772732Y1441987D1*
X3760659Y1454200D1*
X3754482Y1472450D1*
Y1478487D1*
X3760659Y1496737D1*
X3772732Y1508810D1*
X3790982Y1514846D1*
X3797018D1*
X3815268Y1508810D1*
X3827341Y1496737D1*
X3833518Y1472450D1*
Y1441987D1*
X3827341Y1411664D1*
X3815268Y1393414D1*
X3797018Y1387377D1*
X3784945D1*
X3766695Y1393414D1*
X3760659Y1405627D1*
X2313624Y6406560D2*
X2325837Y6412737D1*
X2344087Y6430846D1*
Y6303377D1*
X2419803Y6430846D2*
X2401553Y6424810D1*
X2389340Y6406560D1*
X2383303Y6376237D1*
Y6357987D1*
X2389340Y6327664D1*
X2401553Y6309414D1*
X2419803Y6303377D1*
X2431876D1*
X2450126Y6309414D1*
X2462199Y6327664D1*
X2468376Y6357987D1*
Y6376237D1*
X2462199Y6406560D1*
X2450126Y6424810D1*
X2431876Y6430846D1*
X2419803D1*
X2462199Y6406560D2*
X2389340Y6327664D1*
X1470142Y2022846D2*
X1409496D1*
X1403459Y1968237D1*
X1409496Y1974273D1*
X1427746Y1980450D1*
X1445856D1*
X1464106Y1974273D1*
X1476319Y1962200D1*
X1482356Y1943950D1*
Y1931877D1*
X1476319Y1913627D1*
X1464106Y1901414D1*
X1445856Y1895377D1*
X1427746D1*
X1409496Y1901414D1*
X1403459Y1907590D1*
X1397283Y1919664D1*
X1521571Y2022987D2*
X1570144Y1895377D1*
X1618717Y2022987D1*
X1394426Y1484664D2*
X1388390Y1496737D1*
X1376176Y1508950D1*
X1364103Y1514987D1*
X1339817D1*
X1327603Y1508950D1*
X1315530Y1496737D1*
X1309353Y1484664D1*
X1303317Y1466414D1*
Y1435950D1*
X1309353Y1417840D1*
X1315530Y1405627D1*
X1327603Y1393554D1*
X1339817Y1387377D1*
X1364103D1*
X1376176Y1393554D1*
X1388390Y1405627D1*
X1394426Y1417840D1*
Y1435950D1*
X1364103D1*
X1518715Y1514987D2*
Y1387377D1*
X1433642Y1514987D1*
Y1387377D1*
X1557931Y1514987D2*
Y1387377D1*
X1600467D1*
X1618717Y1393554D1*
X1630931Y1405627D1*
X1636967Y1417840D1*
X1643004Y1435950D1*
Y1466414D1*
X1636967Y1484664D1*
X1630931Y1496737D1*
X1618717Y1508950D1*
X1600467Y1514987D1*
X1557931D1*
X1682220Y1490560D2*
X1694433Y1496737D1*
X1712683Y1514846D1*
Y1387377D1*
X1601352Y3979846D2*
X1668034D1*
X1631675Y3931273D1*
X1649925D1*
X1661998Y3925237D1*
X1668034Y3919200D1*
X1674211Y3900950D1*
Y3888877D1*
X1668034Y3870627D1*
X1655961Y3858414D1*
X1637711Y3852377D1*
X1619461D1*
X1601352Y3858414D1*
X1595315Y3864590D1*
X1589138Y3876664D1*
X1713427Y3979987D2*
X1762000Y3852377D1*
X1810573Y3979987D1*
X1862002Y3979846D2*
X1928685D1*
X1892325Y3931273D1*
X1910575D1*
X1922648Y3925237D1*
X1928685Y3919200D1*
X1934862Y3900950D1*
Y3888877D1*
X1928685Y3870627D1*
X1916612Y3858414D1*
X1898362Y3852377D1*
X1880112D1*
X1862002Y3858414D1*
X1855966Y3864590D1*
X1849789Y3876664D1*
X3595833Y4076662D2*
X3589796Y4088735D1*
X3577583Y4100948D1*
X3565510Y4106985D1*
X3541223D1*
X3529010Y4100948D1*
X3516937Y4088735D1*
X3510760Y4076662D1*
X3504723Y4058412D1*
Y4027948D1*
X3510760Y4009839D1*
X3516937Y3997625D1*
X3529010Y3985552D1*
X3541223Y3979375D1*
X3565510D1*
X3577583Y3985552D1*
X3589796Y3997625D1*
X3595833Y4009839D1*
Y4027948D1*
X3565510D1*
X3720121Y4106985D2*
Y3979375D1*
X3635048Y4106985D1*
Y3979375D1*
X3759337Y4106985D2*
Y3979375D1*
X3801874D1*
X3820124Y3985552D1*
X3832337Y3997625D1*
X3838374Y4009839D1*
X3844410Y4027948D1*
Y4058412D1*
X3838374Y4076662D1*
X3832337Y4088735D1*
X3820124Y4100948D1*
X3801874Y4106985D1*
X3759337D1*
X1206440Y2566835D2*
X1200263Y2579049D1*
X1182154Y2597299D1*
X1309623D1*
X1182154Y2673015D2*
X1188190Y2654765D1*
X1206440Y2642551D1*
X1236764Y2636515D1*
X1255014D1*
X1285337Y2642551D1*
X1303587Y2654764D1*
X1309623Y2673014D1*
Y2685087D1*
X1303587Y2703337D1*
X1285337Y2715410D1*
X1255014Y2721587D1*
X1236764D1*
X1206440Y2715411D1*
X1188190Y2703338D1*
X1182154Y2685088D1*
Y2673015D1*
X1206440Y2715411D2*
X1285337Y2642551D1*
X1182014Y2760803D2*
X1309623D1*
X1182014Y2845876D2*
X1267087Y2760803D1*
X1236623Y2791126D2*
X1309623Y2845876D1*
X1212477Y2891269D2*
X1206440D1*
X1194227Y2897305D1*
X1188190Y2903342D1*
X1182154Y2915555D1*
Y2939842D1*
X1188190Y2951915D1*
X1194227Y2957951D1*
X1206440Y2964128D1*
X1218513D1*
X1230727Y2957951D1*
X1248837Y2945878D1*
X1309623Y2885092D1*
Y2970165D1*
X2730440Y2594140D2*
X2724263Y2606354D1*
X2706154Y2624604D1*
X2833623D1*
X2706154Y2700319D2*
X2712190Y2682069D1*
X2730440Y2669856D1*
X2760764Y2663819D1*
X2779014D1*
X2809337Y2669856D1*
X2827587Y2682069D1*
X2833623Y2700319D1*
Y2712392D1*
X2827587Y2730642D1*
X2809337Y2742715D1*
X2779014Y2748892D1*
X2760764D1*
X2730440Y2742715D1*
X2712190Y2730642D1*
X2706154Y2712392D1*
Y2700319D1*
X2730440Y2742715D2*
X2809337Y2669856D1*
X2706014Y2788108D2*
X2833623D1*
X2706014Y2873181D2*
X2791087Y2788108D1*
X2760623Y2818431D2*
X2833623Y2873181D1*
X2730440Y2912397D2*
X2724264Y2924610D1*
X2706154Y2942860D1*
X2833623D1*
X3492440Y2628980D2*
X3486263Y2641193D1*
X3468154Y2659443D1*
X3595623D1*
X3468154Y2735159D2*
X3474190Y2716909D1*
X3492440Y2704695D1*
X3522764Y2698659D1*
X3541014D1*
X3571337Y2704695D1*
X3589587Y2716909D1*
X3595623Y2735159D1*
Y2747232D1*
X3589587Y2765482D1*
X3571337Y2777555D1*
X3541014Y2783732D1*
X3522764D1*
X3492440Y2777555D1*
X3474190Y2765482D1*
X3468154Y2747232D1*
Y2735159D1*
X3492440Y2777555D2*
X3571337Y2704695D1*
X3468014Y2822948D2*
X3595623Y2822947D1*
X3468014Y2908021D2*
X3553087Y2822947D1*
X3522623Y2853271D2*
X3595623Y2908021D1*
X2250614Y1514987D2*
Y1387377D1*
X2208077Y1514987D2*
X2293150D1*
X2332366D2*
Y1387377D1*
Y1448164D2*
X2350616Y1466414D1*
X2362830Y1472450D1*
X2381080D1*
X2393153Y1466414D1*
X2399189Y1448164D1*
Y1387377D1*
X2438405Y1435950D2*
X2511264D1*
Y1448164D1*
X2505228Y1460377D1*
X2499191Y1466414D1*
X2486978Y1472450D1*
X2468728D1*
X2456655Y1466414D1*
X2444441Y1454200D1*
X2438405Y1435950D1*
Y1423877D1*
X2444441Y1405627D1*
X2456655Y1393554D1*
X2468728Y1387377D1*
X2486978D1*
X2499191Y1393554D1*
X2511264Y1405627D1*
X2550480Y1472450D2*
Y1387377D1*
Y1435950D2*
X2556657Y1454200D1*
X2568730Y1466414D1*
X2580944Y1472450D1*
X2599194D1*
X2638409D2*
Y1387377D1*
Y1448164D2*
X2656659Y1466414D1*
X2668873Y1472450D1*
X2686982D1*
X2699196Y1466414D1*
X2705232Y1448164D1*
Y1387377D1*
Y1448164D2*
X2723482Y1466414D1*
X2735696Y1472450D1*
X2753805D1*
X2766019Y1466414D1*
X2772196Y1448164D1*
Y1387377D1*
X2811412Y1514987D2*
X2817448Y1508950D1*
X2823625Y1514987D1*
X2817448Y1521164D1*
X2811412Y1514987D1*
X2817448Y1472450D2*
Y1387377D1*
X2929664Y1454200D2*
X2923627Y1466414D1*
X2905377Y1472450D1*
X2887127D1*
X2868877Y1466414D1*
X2862841Y1454200D1*
X2868877Y1442127D1*
X2881091Y1435950D1*
X2911414Y1429914D1*
X2923627Y1423877D1*
X2929664Y1411664D1*
Y1405627D1*
X2923627Y1393554D1*
X2905377Y1387377D1*
X2887127D1*
X2868877Y1393554D1*
X2862841Y1405627D1*
X2987129Y1514987D2*
Y1411664D1*
X2993166Y1393554D1*
X3005379Y1387377D1*
X3017453D1*
X2968879Y1472450D2*
X3011416D1*
X3086991D2*
X3074918Y1466414D1*
X3062705Y1454200D1*
X3056668Y1435950D1*
Y1423877D1*
X3062705Y1405627D1*
X3074918Y1393554D1*
X3086991Y1387377D1*
X3105241D1*
X3117455Y1393554D1*
X3129528Y1405627D1*
X3135705Y1423877D1*
Y1435950D1*
X3129528Y1454200D1*
X3117455Y1466414D1*
X3105241Y1472450D1*
X3086991D1*
X3174920D2*
Y1387377D1*
Y1435950D2*
X3181097Y1454200D1*
X3193170Y1466414D1*
X3205384Y1472450D1*
X3223634D1*
X3269027Y1484523D2*
Y1490560D1*
X3275063Y1502773D1*
X3281100Y1508810D1*
X3293313Y1514846D1*
X3317600D1*
X3329673Y1508810D1*
X3335709Y1502773D1*
X3341886Y1490560D1*
Y1478487D1*
X3335709Y1466273D1*
X3323636Y1448164D1*
X3262850Y1387377D1*
X3347923D1*
M02*
